<svg width="80" height="80" viewBox="0 0 80 80" fill="none" xmlns="http://www.w3.org/2000/svg">
<circle cx="40" cy="40" r="40" fill="#FAF6F0"/>
<g clip-path="url(#clip0)">
<path fill-rule="evenodd" clip-rule="evenodd" d="M51.9069 45.7143C55.7328 43.8571 58.2834 39.8571 58 35.2857C57.5749 29.4286 52.7571 25 46.9474 25H34.0526C28.2429 25 23.4251 29.4286 23 35.2857C22.7166 39.8571 25.2672 43.8571 28.9514 45.7143C29.2348 45.8571 29.3765 46.1429 29.2348 46.5714L27.8178 49.5714C27.251 50.7143 27.5344 52.1429 28.3846 53.1429C29.9433 54.7143 32.4939 54.1429 33.4858 52.2857L36.0364 47.1429C36.1781 47 36.3198 46.8571 36.6032 46.8571C36.8866 46.8571 37.17 47.1429 37.17 47.4286V54.7143C37.17 56.4286 38.587 57.8571 40.2874 57.8571C42.1295 57.8571 43.5465 56.4286 43.5465 54.5714V47.2857C43.5465 47 43.8299 46.7143 44.1133 46.7143C44.3968 46.7143 44.5385 46.8571 44.6802 47L47.3725 52.2857C48.3644 54.1429 50.7733 54.5714 52.332 53.1429C53.4656 52.1429 53.6073 50.5714 53.0405 49.2857L51.6235 46.4286C51.4818 46.1429 51.6235 45.8571 51.9069 45.7143ZM47.0891 40.4286H33.9109C31.502 40.4286 29.5182 38.4286 29.5182 36C29.5182 33.5714 31.502 31.5714 33.9109 31.5714H47.2308C49.6397 31.5714 51.6235 33.5714 51.6235 36C51.6235 38.4286 49.6397 40.4286 47.0891 40.4286Z" fill="#292428"/>
</g>
<defs>
<clipPath id="clip0">
<rect x="23" y="25" width="35" height="33" fill="white"/>
</clipPath>
</defs>
</svg>
