<svg width="32" height="32" viewBox="0 0 32 32" fill="none" xmlns="http://www.w3.org/2000/svg">
  <path fill-rule="evenodd" clip-rule="evenodd" d="M32 16C32 24.8366 24.8366 32 16 32C7.16344 32 0 24.8366 0 16C0 7.16344 7.16344 0 16 0C24.8366 0 32 7.16344 32 16ZM26.4314 13.3181C26.6 16.0373 25.0828 18.4165 22.8071 19.5212C22.6385 19.6062 22.5543 19.7762 22.6385 19.9461L23.4814 21.6456C23.8185 22.4103 23.7343 23.3451 23.06 23.9399C22.1328 24.7896 20.7 24.5347 20.11 23.43L18.5085 20.286C18.4243 20.201 18.34 20.1161 18.1713 20.1161C18.0028 20.1161 17.8342 20.286 17.8342 20.4559V24.7896C17.8342 25.8943 16.9913 26.744 15.8956 26.744C14.8842 26.744 14.0413 25.8943 14.0413 24.8746V20.5409C14.0413 20.371 13.8728 20.201 13.7042 20.201C13.5356 20.201 13.4513 20.286 13.3671 20.371L11.8499 23.43C11.2599 24.5347 9.74277 24.8746 8.81563 23.9399C8.30991 23.3451 8.14134 22.4953 8.47849 21.8155L9.32134 20.0311C9.40563 19.7762 9.32134 19.6062 9.15277 19.5212C6.96134 18.4165 5.4442 16.0373 5.61277 13.3181C5.86563 9.83421 8.73134 7.2 12.1871 7.2H19.8571C23.3128 7.2 26.1785 9.83421 26.4314 13.3181ZM12.1028 16.3772H19.9414C21.4585 16.3772 22.6385 15.1876 22.6385 13.743C22.6385 12.2984 21.4585 11.1088 20.0257 11.1088H12.1028C10.6699 11.1088 9.48991 12.2984 9.48991 13.743C9.48991 15.1876 10.6699 16.3772 12.1028 16.3772Z" fill="#0A43E5"/>
  <style>
      @media (prefers-color-scheme:dark){:root{filter:invert(100%)}}
    </style>
</svg>

